<?xml version="1.0" standalone="no"?>
<!DOCTYPE svg PUBLIC "-//W3C//DTD SVG 20010904//EN"
 "http://www.w3.org/TR/2001/REC-SVG-20010904/DTD/svg10.dtd">
<svg version="1.0" xmlns="http://www.w3.org/2000/svg"
 width="700.000000pt" height="700.000000pt" viewBox="0 0 700.000000 700.000000"
 preserveAspectRatio="xMidYMid meet">
<metadata>
Created by potrace 1.11, written by Peter Selinger 2001-2013
</metadata>
<g transform="translate(0.000000,700.000000) scale(0.100000,-0.100000)"
fill="#000000" stroke="none">
<path d="M3849 5163 c-6 -16 -12 -44 -15 -63 -2 -19 -10 -57 -17 -85 l-13 -49
-50 4 c-135 12 -586 2 -613 -14 -3 -2 -33 -6 -67 -10 -124 -13 -411 -93 -589
-164 -631 -252 -1174 -780 -1444 -1402 -23 -52 -46 -104 -51 -115 -34 -73
-117 -364 -134 -470 -29 -177 -37 -248 -43 -370 l-6 -141 270 1 270 0 2 80 c3
83 4 101 15 200 6 49 24 142 51 266 21 96 98 297 162 424 279 553 779 958
1377 1116 61 16 131 31 156 35 25 3 52 7 60 9 18 5 87 14 155 20 52 5 278 6
330 1 32 -3 34 -9 20 -71 -3 -16 -19 -93 -36 -170 -16 -77 -36 -167 -44 -200
-8 -33 -17 -73 -20 -90 -2 -16 -7 -41 -11 -55 -3 -14 -12 -54 -19 -90 -8 -36
-16 -74 -19 -85 -4 -19 -28 -129 -40 -185 -5 -25 -29 -135 -66 -302 -12 -51
-23 -106 -26 -123 -3 -16 -14 -66 -24 -110 -10 -44 -21 -93 -24 -110 -11 -53
-16 -80 -21 -100 -2 -11 -5 -22 -5 -25 -1 -3 -5 -23 -11 -45 -5 -22 -12 -51
-14 -65 -3 -14 -8 -36 -11 -50 -36 -147 -51 -245 -41 -256 28 -32 37 -44 33
-44 -3 0 5 -10 17 -23 37 -40 77 -89 77 -96 0 -3 13 -20 28 -37 15 -18 37 -44
50 -59 26 -30 19 -32 96 35 16 14 26 18 21 10 -4 -8 4 -2 18 15 21 25 27 27
40 17 11 -9 17 -10 22 -2 4 6 3 9 -2 8 -4 -2 -8 2 -8 7 0 6 3 9 8 7 4 -1 6 2
5 7 -2 5 19 26 45 46 42 32 50 35 65 23 15 -12 16 -11 3 4 -12 16 -10 19 10
27 13 5 18 10 12 10 -9 1 -13 18 -13 49 0 26 6 54 13 61 10 11 10 13 0 7 -16
-9 -17 6 -1 22 9 9 9 12 -1 12 -11 0 -11 3 0 17 9 10 9 14 2 10 -9 -6 -11 2
-8 28 3 20 6 76 7 125 1 52 6 86 12 83 5 -4 6 -1 0 8 -15 23 -11 103 6 117 8
8 9 11 3 7 -11 -5 -17 6 -14 27 0 4 1 30 2 57 1 29 7 51 13 51 7 0 6 4 -2 8
-15 10 -11 44 8 69 13 16 13 17 -1 6 -13 -11 -15 -7 -15 27 0 21 4 36 9 33 5
-3 5 3 -1 13 -8 15 -7 24 6 38 9 11 11 16 5 12 -9 -5 -13 1 -14 21 -1 15 -1
32 0 37 1 4 2 24 3 45 0 20 6 42 12 50 8 11 8 13 0 8 -14 -8 -13 75 1 85 6 5
4 8 -4 8 -11 0 -10 4 5 16 10 8 13 13 7 9 -9 -4 -12 14 -12 75 0 58 4 78 12
73 9 -5 9 -3 1 8 -9 12 -10 71 -5 206 1 7 9 10 19 7 15 -5 15 -4 1 5 -11 7
-17 24 -17 48 0 35 1 36 14 18 8 -10 14 -14 14 -8 0 6 -6 15 -13 21 -14 12
-16 119 -3 141 4 6 1 11 -6 11 -10 0 -10 2 1 9 10 6 10 10 1 16 -8 5 -6 13 7
28 10 11 12 17 6 13 -10 -5 -13 3 -13 29 0 20 4 34 8 31 5 -3 9 1 9 9 0 8 -4
12 -9 9 -13 -8 -10 10 5 25 10 11 10 13 0 7 -7 -4 -13 -2 -13 3 0 6 6 11 13
11 8 0 8 3 1 8 -13 9 -14 62 -1 62 6 0 6 5 1 13 -9 11 -10 31 -4 50 6 19 5 33
-4 39 -6 4 -3 10 8 14 10 4 72 -5 140 -21 505 -115 947 -409 1260 -834 36 -50
66 -92 66 -95 0 -3 13 -24 29 -48 46 -69 145 -274 184 -383 51 -141 92 -302
103 -405 3 -25 7 -51 9 -58 5 -13 15 -153 19 -237 l1 -40 210 3 c176 3 290 7
327 11 4 1 6 7 3 14 -2 6 -6 65 -9 129 -25 542 -235 1089 -584 1528 -100 125
-344 369 -423 422 -13 9 -33 24 -44 35 -33 31 -224 156 -320 210 -270 152
-572 258 -880 309 -5 1 -18 2 -28 3 -11 1 -15 6 -11 12 5 8 1 8 -14 0 -16 -9
-21 -7 -25 9 -3 11 -2 20 1 20 4 0 7 45 7 100 0 55 -1 100 -3 100 -1 0 -7 -12
-13 -27z"/>
<path d="M3836 3927 c3 -10 9 -15 12 -12 3 3 0 11 -7 18 -10 9 -11 8 -5 -6z"/>
<path d="M3674 2168 l-19 -23 23 19 c21 18 27 26 19 26 -2 0 -12 -10 -23 -22z"/>
<path d="M3547 2059 c7 -7 15 -10 18 -7 3 3 -2 9 -12 12 -14 6 -15 5 -6 -5z"/>
</g>
</svg>
